<?xml version="1.0" standalone="no"?>
<!DOCTYPE svg PUBLIC "-//W3C//DTD SVG 20010904//EN"
 "http://www.w3.org/TR/2001/REC-SVG-20010904/DTD/svg10.dtd">
<svg version="1.0" xmlns="http://www.w3.org/2000/svg"
 width="483.000000pt" height="297.000000pt" viewBox="0 0 483.000000 297.000000"
 preserveAspectRatio="xMidYMid meet">

<g transform="translate(0.000000,297.000000) scale(0.100000,-0.100000)"
fill="#000000" stroke="none">
<path d="M10 2240 l0 -280 2405 0 2405 0 0 280 0 280 -1674 0 c-1504 0 -1674
-2 -1680 -16 -3 -8 -2 -12 4 -9 10 6 14 -7 11 -34 -2 -7 2 -10 8 -6 6 3 11 -1
11 -9 0 -20 -19 -21 -26 -1 -4 8 -10 15 -15 15 -5 0 -1 -12 8 -27 14 -21 14
-25 3 -18 -24 15 -53 5 -88 -31 -29 -29 -33 -31 -27 -12 6 19 5 21 -6 11 -18
-18 -32 -16 -25 3 3 8 2 13 -3 10 -12 -8 -63 72 -55 87 4 7 4 9 -1 5 -5 -5
-14 1 -22 12 -13 19 -26 20 -209 20 -107 0 -194 -4 -194 -8 0 -4 34 -64 76
-132 41 -69 76 -127 77 -130 1 -3 -6 -16 -17 -30 l-18 -25 7 24 c6 20 4 23 -9
18 -11 -4 -16 -1 -16 10 0 9 -3 13 -7 10 -3 -4 -16 8 -27 28 -12 19 -50 79
-85 135 l-64 100 -194 0 c-106 0 -193 -3 -193 -7 0 -3 52 -91 115 -194 80
-129 113 -193 109 -205 -5 -16 -4 -16 5 -4 10 13 15 8 12 -12 0 -5 3 -8 7 -8
5 0 14 -12 21 -27 l12 -28 -21 25 -21 25 7 -30 c6 -29 6 -29 -10 -10 -17 19
-17 19 -11 -10 4 -22 3 -26 -5 -15 -5 8 -10 24 -10 35 -1 16 -4 13 -15 -10
-10 -23 -14 -25 -14 -10 -1 15 -4 16 -13 7 -17 -17 -31 -15 -24 4 3 8 2 13 -2
10 -4 -2 -17 10 -29 27 -55 83 -194 300 -233 364 l-45 73 -97 0 -98 0 0 -280z
m992 -32 c-7 -7 -12 -8 -12 -2 0 14 12 26 19 19 2 -3 -1 -11 -7 -17z m28 -52
c0 -2 -8 -10 -17 -17 -16 -13 -17 -12 -4 4 13 16 21 21 21 13z m-482 -161 c-3
-3 -9 2 -12 12 -6 14 -5 15 5 6 7 -7 10 -15 7 -18z"/>
</g>
</svg>
