<?xml version="1.0" standalone="no"?>
<!DOCTYPE svg PUBLIC "-//W3C//DTD SVG 20010904//EN"
 "http://www.w3.org/TR/2001/REC-SVG-20010904/DTD/svg10.dtd">
<svg version="1.0" xmlns="http://www.w3.org/2000/svg"
 width="151.000000pt" height="148.000000pt" viewBox="0 0 151.000000 148.000000"
 preserveAspectRatio="xMidYMid meet">

<g transform="translate(0.000000,148.000000) scale(0.100000,-0.100000)"
fill="#000000" stroke="none">
<path d="M472 1441 c-15 -16 -37 -34 -49 -40 -35 -18 -29 -58 17 -110 l39 -45
-79 -83 c-96 -101 -149 -199 -157 -291 -7 -74 0 -102 33 -142 46 -54 74 -60
302 -60 188 0 209 2 248 21 78 37 106 115 80 219 -24 94 -72 175 -153 258 -40
42 -73 77 -73 80 0 2 18 24 40 49 22 25 40 53 40 63 0 18 -25 43 -52 53 -10 4
-18 13 -18 21 0 25 -35 36 -115 36 -71 0 -78 -2 -103 -29z m171 -17 c3 -4 -3
-24 -14 -46 -16 -30 -18 -43 -9 -52 8 -8 18 -3 38 21 20 24 31 30 42 23 12 -7
7 -18 -26 -57 -39 -45 -44 -48 -96 -51 -55 -3 -55 -3 -97 46 -22 28 -41 53
-41 56 0 17 37 3 56 -21 18 -22 25 -26 35 -16 10 10 10 20 -4 48 -9 20 -17 40
-17 45 0 11 123 14 133 4z m-43 -299 c5 -14 16 -25 25 -25 20 0 47 -44 43 -72
-4 -30 -31 -30 -38 1 -11 47 -30 36 -30 -18 0 -46 3 -52 29 -65 33 -17 41 -34
41 -82 0 -34 -35 -84 -60 -84 -5 0 -10 -9 -10 -20 0 -25 -30 -27 -36 -2 -3 9
-18 25 -34 34 -30 17 -47 56 -36 84 8 22 29 12 36 -16 11 -47 30 -34 30 19 0
45 -3 53 -24 61 -69 26 -66 143 4 165 10 3 20 15 23 25 7 28 26 25 37 -5z"/>
<path d="M534 1046 c-8 -22 -1 -59 14 -64 8 -2 12 9 12 37 0 40 -15 55 -26 27z"/>
<path d="M600 870 c0 -42 14 -54 25 -20 7 23 -2 60 -16 60 -5 0 -9 -18 -9 -40z"/>
<path d="M210 677 c-14 -8 -24 -19 -23 -25 2 -7 -15 -9 -51 -5 -49 5 -55 3
-89 -27 -20 -18 -37 -36 -37 -40 0 -5 71 -58 158 -118 140 -97 172 -114 297
-161 77 -29 186 -70 243 -92 93 -35 112 -39 197 -39 95 0 95 0 95 -25 0 -24 2
-25 69 -25 l70 0 3 -52 3 -53 163 -3 c152 -2 163 -1 160 15 -3 16 -18 18 -141
21 l-137 3 0 234 0 234 118 3 c96 2 117 6 117 18 0 12 -21 16 -117 18 l-118 3
0 28 c0 71 -37 87 -42 19 l-3 -43 -70 -5 -70 -5 -3 -37 c-5 -54 -28 -50 -103
17 l-62 55 -186 -2 -186 -3 0 -30 c1 -16 4 -40 9 -52 16 -49 -15 -19 -67 65
-73 115 -127 145 -197 109z m88 -43 c24 -16 77 -93 69 -100 -7 -8 -97 47 -112
69 -31 44 -4 64 43 31z m-6 -109 l147 -85 164 0 c90 0 167 3 170 7 4 3 2 12
-4 20 -8 9 -41 13 -119 13 -112 0 -126 5 -143 53 -6 16 5 17 150 17 l156 0 64
-55 c47 -40 73 -55 94 -55 l30 0 -3 -111 -3 -111 -90 -1 c-89 0 -91 0 -324 87
-229 85 -238 89 -373 183 -111 77 -136 98 -127 109 23 27 65 13 211 -71z"/>
<path d="M1263 154 c-8 -21 13 -42 28 -27 13 13 5 43 -11 43 -6 0 -13 -7 -17
-16z"/>
</g>
</svg>
