<?xml version="1.0" standalone="no"?>
<!DOCTYPE svg PUBLIC "-//W3C//DTD SVG 20010904//EN"
 "http://www.w3.org/TR/2001/REC-SVG-20010904/DTD/svg10.dtd">
<svg version="1.0" xmlns="http://www.w3.org/2000/svg"
 width="600.000000pt" height="600.000000pt" viewBox="0 0 600.000000 600.000000"
 preserveAspectRatio="xMidYMid meet">

<g transform="translate(0.000000,600.000000) scale(0.100000,-0.100000)"
fill="#000000" stroke="none">
<path d="M3465 4481 c-11 -5 -350 -338 -753 -742 l-734 -732 734 -734 c524
-524 742 -736 766 -744 103 -34 205 66 174 169 -9 30 -136 161 -647 672 l-635
635 639 640 c694 694 669 665 642 748 -25 75 -114 117 -186 88z"/>
<path d="M4205 4471 c-16 -10 -355 -345 -753 -743 l-722 -723 737 -737 c648
-647 742 -737 775 -743 48 -9 98 8 134 46 25 27 29 38 29 90 l0 59 -637 637
c-351 351 -638 643 -638 648 0 6 282 291 626 635 344 344 632 637 640 652 62
117 -79 249 -191 179z"/>
</g>
</svg>
