<?xml version="1.0" standalone="no"?>
<!DOCTYPE svg PUBLIC "-//W3C//DTD SVG 20010904//EN"
 "http://www.w3.org/TR/2001/REC-SVG-20010904/DTD/svg10.dtd">
<svg version="1.0" xmlns="http://www.w3.org/2000/svg"
 width="600.000000pt" height="600.000000pt" viewBox="0 0 600.000000 600.000000"
 preserveAspectRatio="xMidYMid meet">

<g transform="translate(0.000000,600.000000) scale(0.100000,-0.100000)"
fill="#000000" stroke="none">
<path d="M1670 4462 c-54 -27 -83 -77 -77 -136 l4 -48 637 -637 c350 -350 636
-641 636 -646 0 -6 -282 -291 -626 -635 -344 -344 -632 -637 -640 -652 -60
-113 71 -244 184 -184 15 8 354 342 754 743 l728 728 -733 732 c-409 410 -744
737 -760 743 -40 14 -67 13 -107 -8z"/>
<path d="M2424 4466 c-63 -28 -96 -103 -75 -168 8 -23 194 -216 646 -668 l635
-635 -639 -640 c-694 -694 -669 -665 -642 -748 25 -74 113 -117 184 -89 10 4
349 338 753 742 l734 735 -727 728 c-421 421 -742 735 -760 743 -40 17 -69 17
-109 0z"/>
</g>
</svg>
