<?xml version="1.0" standalone="no"?>
<!DOCTYPE svg PUBLIC "-//W3C//DTD SVG 20010904//EN"
 "http://www.w3.org/TR/2001/REC-SVG-20010904/DTD/svg10.dtd">
<svg version="1.0" xmlns="http://www.w3.org/2000/svg"
 width="384.000000pt" height="384.000000pt" viewBox="0 0 384.000000 384.000000"
 preserveAspectRatio="xMidYMid meet">

<g transform="translate(0.000000,384.000000) scale(0.100000,-0.100000)"
fill="#000000" stroke="none">
<path d="M1710 3829 c-790 -89 -1452 -663 -1649 -1432 -85 -327 -78 -701 18
-1022 193 -646 712 -1146 1364 -1314 327 -85 701 -78 1022 18 646 193 1146
712 1314 1364 85 327 78 701 -18 1022 -243 816 -1005 1382 -1849 1374 -70 -1
-161 -5 -202 -10z m-454 -1121 c26 -46 71 -123 100 -173 110 -189 351 -608
452 -783 86 -149 107 -181 118 -170 7 7 55 87 107 178 52 91 127 221 167 290
40 69 90 154 110 190 20 36 61 108 92 160 30 52 81 140 112 195 32 55 71 121
88 148 l30 47 229 0 c126 0 229 -2 229 -4 0 -3 -16 -33 -37 -68 -20 -35 -61
-106 -91 -158 -30 -52 -78 -135 -107 -185 -29 -49 -78 -134 -109 -187 -31 -54
-80 -140 -110 -190 -29 -51 -65 -113 -78 -138 -14 -25 -39 -67 -56 -95 -16
-27 -90 -153 -162 -280 -73 -126 -156 -270 -185 -320 -28 -49 -78 -135 -110
-190 -106 -184 -119 -205 -127 -205 -9 0 -18 16 -116 185 -32 55 -78 134 -102
175 -23 41 -62 109 -85 150 -23 41 -74 129 -113 195 -39 66 -81 138 -93 160
-20 38 -52 93 -199 345 -37 63 -92 158 -122 210 -30 52 -97 167 -148 255 -51
88 -111 192 -132 232 -21 40 -43 75 -48 78 -6 4 -10 13 -10 21 0 12 36 14 229
14 l229 0 48 -82z"/>
</g>
</svg>
